<?xml version="1.0" encoding="UTF-8" standalone="no"?>
<!-- Created with Inkscape (http://www.inkscape.org/) -->

<svg
   version="1.1"
   id="svg1"
   width="382.82443"
   height="447.86118"
   viewBox="0 0 382.82443 447.86118"
   sodipodi:docname="ChatGPT Image Jul 7, 2025, 11_27_33 AM.png"
   xmlns:inkscape="http://www.inkscape.org/namespaces/inkscape"
   xmlns:sodipodi="http://sodipodi.sourceforge.net/DTD/sodipodi-0.dtd"
   xmlns="http://www.w3.org/2000/svg"
   xmlns:svg="http://www.w3.org/2000/svg">
  <defs
     id="defs1" />
  <sodipodi:namedview
     id="namedview1"
     pagecolor="#ffffff"
     bordercolor="#999999"
     borderopacity="1"
     inkscape:showpageshadow="2"
     inkscape:pageopacity="0"
     inkscape:pagecheckerboard="0"
     inkscape:deskcolor="#d1d1d1"
     showgrid="false">
    <inkscape:page
       x="0"
       y="0"
       width="382.82443"
       height="447.86118"
       id="page2"
       margin="0"
       bleed="0" />
  </sodipodi:namedview>
  <g
     inkscape:groupmode="layer"
     inkscape:label="Image"
     id="g1"
     transform="translate(-363.5076,-170.42506)">
    <path
       id="path18"
       style="fill:#1a1a1a"
       d="m 542.40929,509.8073 c 1.55193,-0.80253 29.83054,-28.73625 62.84136,-62.07494 53.77361,-54.30768 60.15004,-61.08137 61.27231,-65.08972 2.17159,-7.75615 -2.22808,-16.76677 -10.23501,-20.96151 -3.75604,-1.96775 -11.6932,-1.78819 -15.05485,0.34058 -1.51536,0.9596 -25.99825,25.28879 -54.40642,54.06486 l -51.65123,52.32013 -27.59358,-27.48692 c -23.73625,-23.6445 -28.18245,-27.64231 -31.80611,-28.59858 -4.9385,-1.30324 -8.24166,-0.69921 -13.94142,2.5494 -7.11044,4.05265 -10.59869,15.25464 -6.91158,22.1955 1.55736,2.93167 68.48654,69.88596 72.53804,72.56526 3.08972,2.04325 11.15396,2.13817 14.94849,0.17594 z m -61.421,106.49521 c -17.01951,-4.5073 -29.25051,-12.45505 -47.53672,-30.88956 -19.56235,-19.72101 -31.78894,-36.96615 -44.41559,-62.6465 -30.48218,-61.99532 -33.97729,-132.35533 -8.81022,-177.35826 8.7951,-15.7271 24.21383,-32.96698 37.21405,-41.60952 19.81192,-13.17093 43.29331,-18.68728 66.25271,-15.56437 10.56954,1.43765 18.07562,3.57829 32.06587,9.14478 5.37356,2.13805 10.21106,3.88737 10.75,3.88737 1.71501,0 1.08026,-3.4317 -2.98213,-16.12261 -12.0983,-37.79512 -32.43279,-59.24276 -61.53797,-64.90666 -12.45194,-2.42316 -17.52806,-4.89667 -20.34891,-9.9157 -5.29931,-9.42886 0.12792,-21.70354 10.4526,-23.64046 7.8394,-1.47069 29.83685,3.70547 42.89631,10.0938 27.00499,13.21011 48.46133,39.92533 59.57883,74.18141 1.81885,5.60439 3.62073,9.9959 4.00418,9.75891 1.77523,-1.09715 5.8865,-13.95289 6.88647,-21.53369 2.83246,-21.47275 12.73465,-40.7238 28.8828,-56.15166 21.14236,-20.19929 48.99762,-29.6997 94.73568,-32.31088 6.64838,-0.37955 13.02327,-0.39324 14.16642,-0.0304 3.36036,1.06653 4.27664,5.50883 3.16474,15.34331 -3.94096,34.85685 -18.64752,63.23812 -42.68236,82.36999 -14.05322,11.18645 -23.72913,15.20296 -45.55066,18.90827 -6.70235,1.13807 -19.1611,3.63245 -27.6861,5.54308 -8.525,1.91063 -18.08542,3.74913 -21.24538,4.08556 -6.98121,0.74327 -8.04638,1.80769 -6.94959,6.94469 0.74573,3.49275 1.12674,3.87066 3.7906,3.75969 1.62884,-0.0678 11.04867,-2.64968 20.93295,-5.7374 33.41308,-10.4378 47.10946,-12.7062 64.50672,-10.68366 37.08619,4.31149 64.91064,24.95728 81.51115,60.48142 8.51019,18.2113 12.30664,35.4058 13.17119,59.65365 1.995,55.95344 -19.77931,116.52118 -58.61431,163.04244 -19.59958,23.47874 -40.26537,37.96465 -60.486,42.39832 -11.6431,2.55292 -28.68543,1.60416 -42.61733,-2.37254 -5.775,-1.64841 -13.33002,-3.5455 -16.78893,-4.21575 -8.6503,-1.67622 -26.6727,-0.68083 -36.21107,1.99995 -23.18372,6.51587 -37.09409,7.64329 -50.5,4.093 z"
       inkscape:export-filename="path18.svg"
       inkscape:export-xdpi="96"
       inkscape:export-ydpi="96" />
  </g>
</svg>
